/* XPM */
static char *_4039a5f063742cf8c6360ad74704282MikMCwRLl9m3QlOO[] = {
/* columns rows colors chars-per-pixel */
"64 64 3 1 ",
"  c None",
". c #040616",
"X c #BABDD7",
/* pixels */
"                                                         XXXXXXX",
"                                                         X......",
"                                                         X......",
"                                                         X......",
"                                                         X......",
"                                                         X......",
"                                                         X......",
"                                                         X......",
"                                                         X......",
"                                                         X......",
"                                                         X......",
"                                                         X......",
"                                                         X......",
"                                                         X......",
"                                                         X......",
"                                                         X......",
"                                                         X......",
"                                                         X......",
"                                                         X......",
"                                                         X......",
"                                                         X......",
"                                                         X......",
"                                                         X......",
"                                                         X......",
"                                                         X......",
"                                                         X......",
"                                                         X......",
"                                                         X....XX",
"                                                         X....XX",
"                                                         X....XX",
"                                                         X....XX",
"                                                         X....XX",
"                                                         X....XX",
"                                                         X....XX",
"                                                         X....XX",
"                                                         X......",
"                                                         X......",
"                                                         X......",
"                                                         X......",
"                                                         X......",
"                                                         X......",
"                                                         X......",
"                                                         X......",
"                                                         X......",
"                                                         X......",
"                                                         X......",
"                                                         X......",
"                                                         X......",
"                                                         X......",
"                                                         X......",
"                                                         X......",
"                                                         X......",
"                                                         X......",
"                                                         X......",
"                                                         X......",
"                                                         X......",
"                                                         X......",
"                                                         X......",
"                                                         X......",
"                                                         X......",
"                                                         X......",
"                                                         X......",
"                                                         X......",
"                                                         XXXXXXX"
};
