/* XPM */
static char *_1a4985dc3eb4324b5187d827313c7e6E2qN2T3e5L4eRsuD[] = {
/* columns rows colors chars-per-pixel */
"64 64 3 1 ",
"  c None",
". c #040616",
"X c #BABDD7",
/* pixels */
"               XXXXXXXXXXXXXXXXXXXXXXXXXXXXXXXXXXXXXXXXXXXXXXXXX",
"               X................................................",
"               X................................................",
"               X................................................",
"               X................................................",
"               X................................................",
"               X................................................",
"               X................................................",
"               X................................................",
"               X................................................",
"               X................................................",
"               X................................................",
"               X................................................",
"               X................................................",
"               X................................................",
"               X................................................",
"               X................................................",
"               X................................................",
"               X................................................",
"               X................................................",
"               X................................................",
"               X................................................",
"               X................................................",
"               X................................................",
"               X................................................",
"               X................................................",
"               X................................................",
"               X....XXXXXXXX....................................",
"               X....XXXXXXXX....................................",
"               X....XXXXXXXX....................................",
"               X....XXXXXXXX....................................",
"               X....XXXXXXXX....................................",
"               X....XXXXXXXX....................................",
"               X....XXXXXXXX....................................",
"               X....XXXXXXXX....................................",
"               X................................................",
"               X................................................",
"               X................................................",
"               X................................................",
"               X................................................",
"               X................................................",
"               X................................................",
"               X................................................",
"               X................................................",
"               X................................................",
"               X................................................",
"               X................................................",
"               X................................................",
"               X................................................",
"               X................................................",
"               X................................................",
"               X................................................",
"               X................................................",
"               X................................................",
"               X................................................",
"               X................................................",
"               X................................................",
"               X................................................",
"               X................................................",
"               X................................................",
"               X................................................",
"               X................................................",
"               X................................................",
"               XXXXXXXXXXXXXXXXXXXXXXXXXXXXXXXXXXXXXXXXXXXXXXXXX"
};
