/* XPM */
static char *c732f452f2fc48affbb1a571de624e1e5t8ZJ6AYq9ZayIpZ[] = {
/* columns rows colors chars-per-pixel */
"64 64 3 1 ",
"  c None",
". c #040616",
"X c #BABDD7",
/* pixels */
"                                                XXXXXXXXXXXXXXXX",
"                                                X...............",
"                                                X...............",
"                                                X...............",
"                                                X...............",
"                                                X...............",
"                                                X...............",
"                                                X...............",
"                                                X...............",
"                                                X...............",
"                                                X...............",
"                                                X...............",
"                                                X...............",
"                                                X...............",
"                                                X...............",
"                                                X...............",
"                                                X...............",
"                                                X...............",
"                                                X...............",
"                                                X...............",
"                                                X...............",
"                                                X...............",
"                                                X...............",
"                                                X...............",
"                                                X...............",
"                                                X...............",
"                                                X...............",
"                                                X....XXXXXXXX...",
"                                                X....XXXXXXXX...",
"                                                X....XXXXXXXX...",
"                                                X....XXXXXXXX...",
"                                                X....XXXXXXXX...",
"                                                X....XXXXXXXX...",
"                                                X....XXXXXXXX...",
"                                                X....XXXXXXXX...",
"                                                X...............",
"                                                X...............",
"                                                X...............",
"                                                X...............",
"                                                X...............",
"                                                X...............",
"                                                X...............",
"                                                X...............",
"                                                X...............",
"                                                X...............",
"                                                X...............",
"                                                X...............",
"                                                X...............",
"                                                X...............",
"                                                X...............",
"                                                X...............",
"                                                X...............",
"                                                X...............",
"                                                X...............",
"                                                X...............",
"                                                X...............",
"                                                X...............",
"                                                X...............",
"                                                X...............",
"                                                X...............",
"                                                X...............",
"                                                X...............",
"                                                X...............",
"                                                XXXXXXXXXXXXXXXX"
};
