/* XPM */
static char *a68b892219f64627aaed51850708909fKLaCV3aIubZNJF7p[] = {
/* columns rows colors chars-per-pixel */
"64 64 3 1 ",
"  c None",
". c #040616",
"X c #BABDD7",
/* pixels */
"                          XXXXXXXXXXXXXXXXXXXXXXXXXXXXXXXXXXXXXX",
"                          X.....................................",
"                          X.....................................",
"                          X.....................................",
"                          X.....................................",
"                          X.....................................",
"                          X.....................................",
"                          X.....................................",
"                          X.....................................",
"                          X.....................................",
"                          X.....................................",
"                          X.....................................",
"                          X.....................................",
"                          X.....................................",
"                          X.....................................",
"                          X.....................................",
"                          X.....................................",
"                          X.....................................",
"                          X.....................................",
"                          X.....................................",
"                          X.....................................",
"                          X.....................................",
"                          X.....................................",
"                          X.....................................",
"                          X.....................................",
"                          X.....................................",
"                          X.....................................",
"                          X....XXXXXXXX.........................",
"                          X....XXXXXXXX.........................",
"                          X....XXXXXXXX.........................",
"                          X....XXXXXXXX.........................",
"                          X....XXXXXXXX.........................",
"                          X....XXXXXXXX.........................",
"                          X....XXXXXXXX.........................",
"                          X....XXXXXXXX.........................",
"                          X.....................................",
"                          X.....................................",
"                          X.....................................",
"                          X.....................................",
"                          X.....................................",
"                          X.....................................",
"                          X.....................................",
"                          X.....................................",
"                          X.....................................",
"                          X.....................................",
"                          X.....................................",
"                          X.....................................",
"                          X.....................................",
"                          X.....................................",
"                          X.....................................",
"                          X.....................................",
"                          X.....................................",
"                          X.....................................",
"                          X.....................................",
"                          X.....................................",
"                          X.....................................",
"                          X.....................................",
"                          X.....................................",
"                          X.....................................",
"                          X.....................................",
"                          X.....................................",
"                          X.....................................",
"                          X.....................................",
"                          XXXXXXXXXXXXXXXXXXXXXXXXXXXXXXXXXXXXXX"
};
