/* XPM */
static char *ead70d6214574a8eaf679cce62444894zVZAJJiRSW19tt90[] = {
/* columns rows colors chars-per-pixel */
"64 64 3 1 ",
"  c None",
". c #040616",
"X c #BABDD7",
/* pixels */
"                                     XXXXXXXXXXXXXXXXXXXXXXXXXXX",
"                                     X..........................",
"                                     X..........................",
"                                     X..........................",
"                                     X..........................",
"                                     X..........................",
"                                     X..........................",
"                                     X..........................",
"                                     X..........................",
"                                     X..........................",
"                                     X..........................",
"                                     X..........................",
"                                     X..........................",
"                                     X..........................",
"                                     X..........................",
"                                     X..........................",
"                                     X..........................",
"                                     X..........................",
"                                     X..........................",
"                                     X..........................",
"                                     X..........................",
"                                     X..........................",
"                                     X..........................",
"                                     X..........................",
"                                     X..........................",
"                                     X..........................",
"                                     X..........................",
"                                     X....XXXXXXXX..............",
"                                     X....XXXXXXXX..............",
"                                     X....XXXXXXXX..............",
"                                     X....XXXXXXXX..............",
"                                     X....XXXXXXXX..............",
"                                     X....XXXXXXXX..............",
"                                     X....XXXXXXXX..............",
"                                     X....XXXXXXXX..............",
"                                     X..........................",
"                                     X..........................",
"                                     X..........................",
"                                     X..........................",
"                                     X..........................",
"                                     X..........................",
"                                     X..........................",
"                                     X..........................",
"                                     X..........................",
"                                     X..........................",
"                                     X..........................",
"                                     X..........................",
"                                     X..........................",
"                                     X..........................",
"                                     X..........................",
"                                     X..........................",
"                                     X..........................",
"                                     X..........................",
"                                     X..........................",
"                                     X..........................",
"                                     X..........................",
"                                     X..........................",
"                                     X..........................",
"                                     X..........................",
"                                     X..........................",
"                                     X..........................",
"                                     X..........................",
"                                     X..........................",
"                                     XXXXXXXXXXXXXXXXXXXXXXXXXXX"
};
